<svg id="Layer_1" data-name="Layer 1" xmlns="http://www.w3.org/2000/svg" viewBox="0 0 449.31 765.35"><defs><style>.cls-1,.cls-2,.cls-25,.cls-5{fill:#555;}.cls-2,.cls-25,.cls-5{font-size:12px;font-family:MyriadPro-Regular, Myriad Pro;}.cls-3{letter-spacing:-0.01em;}.cls-4{letter-spacing:0em;}.cls-5,.cls-9{letter-spacing:0em;}.cls-6{letter-spacing:0.02em;}.cls-7{letter-spacing:0em;}.cls-8{letter-spacing:-0.01em;}.cls-10{letter-spacing:-0.01em;}.cls-11{letter-spacing:-0.01em;}.cls-12{letter-spacing:-0.01em;}.cls-13{letter-spacing:0em;}.cls-14{letter-spacing:-0.01em;}.cls-15{letter-spacing:0.02em;}.cls-16{letter-spacing:0em;}.cls-17{letter-spacing:0em;}.cls-18{letter-spacing:0.02em;}.cls-19{letter-spacing:-0.01em;}.cls-20{letter-spacing:-0.01em;}.cls-21{letter-spacing:0.02em;}.cls-22{letter-spacing:-0.01em;}.cls-23,.cls-25{letter-spacing:0em;}.cls-24{letter-spacing:0.02em;}.cls-26{letter-spacing:0.02em;}</style></defs><title>icons</title><path class="cls-1" d="M89.7,63.36H83.46V57.13a2.87,2.87,0,0,0-5.73-.08h0v6.3H71.51a2.86,2.86,0,1,0-.08,5.71h6.31v6.26a2.86,2.86,0,1,0,5.71.08V69.09h6.34a2.87,2.87,0,0,0-.08-5.73Z" transform="translate(-59.04 -53.65)"/><text class="cls-2" transform="translate(11.91 60.27)">add</text><text class="cls-2" transform="translate(103.71 60.27)">a<tspan class="cls-3" x="5.78" y="0">r</tspan><tspan x="9.59" y="0">chi</tspan><tspan class="cls-3" x="24.43" y="0">v</tspan><tspan class="cls-4" x="30.08" y="0">e</tspan></text><path class="cls-1" d="M191.64,54.15H169.57a1,1,0,0,0-1,1h0v4.63h24V55.11a1,1,0,0,0-1-1Z" transform="translate(-59.04 -53.65)"/><path class="cls-1" d="M171.54,78.15h18.11a1.76,1.76,0,0,0,1.76-1.76V60.55H169.8V76.38A1.76,1.76,0,0,0,171.54,78.15Zm19.05-4.8V76a1.36,1.36,0,0,1-1.36,1.36H186.6A4,4,0,0,1,190.6,73.35Zm-13.58-8a.4.4,0,0,1,.8,0v.59a.6.6,0,0,0,.6.6h4.37a.6.6,0,0,0,.6-.6h0v-.59a.4.4,0,1,1,.8,0v.59a1.4,1.4,0,0,1-1.4,1.4h-4.4a1.4,1.4,0,0,1-1.38-1.4Zm-6.4,8a4,4,0,0,1,4,4H172A1.36,1.36,0,0,1,170.6,76h0Z" transform="translate(-59.04 -53.65)"/><text class="cls-5" transform="translate(192.21 60.27)">a<tspan class="cls-4" x="5.74" y="0">ttachme</tspan><tspan x="47.52" y="0">n</tspan><tspan class="cls-4" x="54.13" y="0">t</tspan></text><path class="cls-1" d="M275,78.92a6,6,0,0,1-4.26-10.27l12.44-12.44a4.7,4.7,0,0,1,6.63,6.63L278.13,74.52a2.82,2.82,0,0,1-4-4l7.94-7.93a.68.68,0,1,1,1,.91l-.05.05-7.93,7.92a1.46,1.46,0,0,0,2.05,2.07l11.7-11.72a3.33,3.33,0,0,0-4.7-4.69L271.74,69.61a4.65,4.65,0,0,0,6.57,6.59l12.44-12.44a.68.68,0,0,1,1,1L279.28,77.16A6,6,0,0,1,275,78.92Z" transform="translate(-59.04 -53.65)"/><text class="cls-2" transform="translate(311.48 60.27)">bell</text><path class="cls-1" d="M390.79,73.91a9.77,9.77,0,0,1-3.06-7.11V62.87A6.34,6.34,0,0,0,384,57.12a8.42,8.42,0,0,0-1.52-.51v-.19a2.24,2.24,0,0,0-1.71-2.22,2.18,2.18,0,0,0-2.64,2.14v.31a8.31,8.31,0,0,0-1.39.48,6.6,6.6,0,0,0-3.86,5.76v3.93A9.67,9.67,0,0,1,370,73.91a.44.44,0,0,0,.23.74l4.14.71c.78.13,1.49.24,2.16.33a4.34,4.34,0,0,0,7.81,0c.66-.09,1.37-.2,2.14-.33l4.09-.72a.44.44,0,0,0,.23-.74ZM379,56.33a1.31,1.31,0,0,1,1.73-1.24,1.33,1.33,0,0,1,.88,1.29v0a8.81,8.81,0,0,0-2.62,0Zm-3.3,7.16h0a.44.44,0,0,1-.43-.44,4.39,4.39,0,0,1,2.59-3.78,6.67,6.67,0,0,1,5.44,0,.44.44,0,1,1-.22.85l-.14-.06a5.78,5.78,0,0,0-4.71,0,3.49,3.49,0,0,0-2.09,3,.44.44,0,0,1-.43.45Zm7.68,12.33a3.43,3.43,0,0,1-5.61,0h0l.51,0,.24,0h.18a25,25,0,0,0,3.7,0h.22l.29,0,.45,0Z" transform="translate(-59.04 -53.65)"/><text class="cls-2" transform="translate(400.21 60.27)">checked</text><path class="cls-1" d="M491.83,55.18a1.22,1.22,0,0,0-1.68,0L479.06,66.25l-4.61-4.63a1.22,1.22,0,0,0-1.68,0,1.19,1.19,0,0,0,0,1.68l5.47,5.47a1.19,1.19,0,0,0,1.68,0l11.91-11.91A1.19,1.19,0,0,0,491.83,55.18Z" transform="translate(-59.04 -53.65)"/><path class="cls-1" d="M477.29,69.42l-5.36-5.36a2.25,2.25,0,0,1-.65-1.18,2.19,2.19,0,0,1,3.69-2l3.92,3.92L489.2,54.53v-.88h-21v21h21v-14l-8.77,8.77a2.18,2.18,0,0,1-2,.6A2.25,2.25,0,0,1,477.29,69.42Z" transform="translate(-59.04 -53.65)"/><text class="cls-2" transform="translate(0 159.5)">chec<tspan class="cls-6" x="23.42" y="0">k</tspan><tspan class="cls-7" x="29.26" y="0">list</tspan></text><path class="cls-1" d="M91.94,155.12H74.67a.91.91,0,1,1,0-1.82H91.94a.91.91,0,1,1,0,1.82Z" transform="translate(-59.04 -53.65)"/><circle class="cls-1" cx="11.26" cy="100.56" r="1.45"/><path class="cls-1" d="M91.94,161.3H74.67a.91.91,0,1,1,0-1.82H91.94a.91.91,0,1,1,0,1.82Z" transform="translate(-59.04 -53.65)"/><circle class="cls-1" cx="11.26" cy="106.92" r="1.45"/><path class="cls-1" d="M91.94,167.84H74.67a.91.91,0,1,1,0-1.82H91.94a.91.91,0,1,1,0,1.82Z" transform="translate(-59.04 -53.65)"/><circle class="cls-1" cx="11.26" cy="113.28" r="1.45"/><text class="cls-2" transform="translate(107.56 159.5)">cloud</text><path class="cls-1" d="M179.4,168.14h-6.06a4.66,4.66,0,0,1-4.66-4.66,5.09,5.09,0,0,1,2.76-4.38l.24-.11v-.69a3,3,0,0,1,3.39-3h.1l.34.08h0l.36.14.09,0a3,3,0,0,1,1.68,2.69.43.43,0,1,0,.86,0,3.85,3.85,0,0,0-1.37-2.94,6.8,6.8,0,0,1,5.26-2.6,6.47,6.47,0,0,1,6.36,6,8.18,8.18,0,0,0-1.75.05.43.43,0,0,0,.06.85h.06a7.88,7.88,0,0,1,2,0,4.33,4.33,0,0,1-.91,8.57H179.4Z" transform="translate(-59.04 -53.65)"/><text class="cls-2" transform="translate(201.42 159.5)"><tspan class="cls-8">c</tspan><tspan x="5.3" y="0">o</tspan><tspan class="cls-9" x="11.89" y="0">n</tspan><tspan x="18.5" y="0">t</tspan><tspan class="cls-10" x="22.48" y="0">r</tspan><tspan x="26.28" y="0">ols</tspan></text><path class="cls-1" d="M284.68,171.18V173H269.13a.44.44,0,1,0,0,.89h15.55v1.79a.44.44,0,0,0,.44.44h5.34a.44.44,0,0,0,.44-.44h0v-1.78h1.33a.44.44,0,0,0,0-.89h-1.33v-1.78a.44.44,0,0,0-.44-.44h-5.33a.44.44,0,0,0-.45.44Z" transform="translate(-59.04 -53.65)"/><path class="cls-1" d="M277.57,162.73v1.78h-8.44a.44.44,0,0,0,0,.89h8.44v1.78a.44.44,0,0,0,.44.44h5.33a.44.44,0,0,0,.44-.44h0V165.4h8.45a.44.44,0,0,0,0-.89H283.8v-1.78a.44.44,0,0,0-.44-.44H278a.44.44,0,0,0-.45.44Z" transform="translate(-59.04 -53.65)"/><path class="cls-1" d="M270.46,154.29v1.77h-1.33a.44.44,0,1,0,0,.89h1.33v1.78a.44.44,0,0,0,.44.45h5.34a.44.44,0,0,0,.44-.44h0V157h15.55a.45.45,0,1,0,0-.9H276.69v-1.77a.44.44,0,0,0-.44-.44H270.9A.44.44,0,0,0,270.46,154.29Z" transform="translate(-59.04 -53.65)"/><text class="cls-2" transform="translate(308.67 159.5)">c<tspan class="cls-10" x="5.38" y="0">r</tspan><tspan x="9.18" y="0">oss</tspan></text><polygon class="cls-1" points="333.31 102.58 331.22 100.5 321.31 110.41 311.4 100.5 309.31 102.58 319.22 112.5 309.31 122.41 311.4 124.5 321.31 114.58 331.22 124.5 333.31 122.41 323.4 112.5 333.31 102.58"/><text class="cls-2" transform="translate(395.89 159.5)">d<tspan class="cls-11" x="6.77" y="0">o</tspan><tspan x="13.27" y="0">wnload</tspan></text><path class="cls-1" d="M476.81,165.41a.81.81,0,0,0-1.15,1.15l4,4a.81.81,0,0,0,.57.24h0a.81.81,0,0,0,.66-.35l4-4a.81.81,0,0,0-1.15-1.15L481.12,168V155a.81.81,0,1,0-1.62,0v13.07Z" transform="translate(-59.04 -53.65)"/><path class="cls-1" d="M481.94,160.69v5.4l1.28-1.28a1.62,1.62,0,0,1,2.3,2.3l-4,4a1.61,1.61,0,0,1-1.23.57h0a1.62,1.62,0,0,1-1.18-.48l-4-4a1.62,1.62,0,0,1,2.3-2.3l1.3,1.3v-5.43h-7.29v17.45h17.86V160.69Z" transform="translate(-59.04 -53.65)"/><text class="cls-2" transform="translate(9.96 262.35)">fil<tspan class="cls-12" x="9.11" y="0">t</tspan><tspan x="13.01" y="0">er</tspan></text><text class="cls-2" transform="translate(112.76 262.35)">flag</text><text class="cls-2" transform="translate(200.73 262.35)">ga<tspan class="cls-13" x="12.49" y="0">r</tspan><tspan x="16.46" y="0">bage</tspan></text><text class="cls-2" transform="translate(292.63 262.35)">hambu<tspan class="cls-14" x="35.89" y="0">r</tspan><tspan x="39.72" y="0">ger</tspan></text><text class="cls-2" transform="translate(407.32 262.35)">hea<tspan class="cls-15" x="18.46" y="0">r</tspan><tspan class="cls-4" x="22.67" y="0">t</tspan></text><path class="cls-1" d="M92,260.48c0-2.13-5.82-3.24-11.56-3.24s-11.56,1.11-11.56,3.24a1.64,1.64,0,0,0,.83,1.29l8,10.88v8.1l0,.49h.67l4.85-4.85v-3.75l8-10.88A1.64,1.64,0,0,0,92,260.48Zm-11.59-2.54c6.49,0,10.63,1.37,10.63,2.31s-4.13,2.32-10.63,2.32S69.8,261.2,69.8,260.25,73.94,257.94,80.44,257.94Z" transform="translate(-59.04 -53.65)"/><path class="cls-1" d="M189.75,266.28l-16.57-7.69v-.95a.4.4,0,0,0-.8,0v23.2a.4.4,0,0,0,.8,0v-7.33L189.73,267a.4.4,0,0,0,0-.73Z" transform="translate(-59.04 -53.65)"/><path class="cls-1" d="M290,259.68h-5.71a3.23,3.23,0,0,0-.74-1.92,1.72,1.72,0,0,0-1.28-.52h-4.06a1.72,1.72,0,0,0-1.28.52,3.23,3.23,0,0,0-.74,1.92h-4.91a.41.41,0,1,0,0,.81h.83l.78,18.72a2,2,0,0,0,2,2h11.49a2,2,0,0,0,2-1.95s0,0,0-.07l.78-18.73H290a.41.41,0,0,0,0-.81Zm-13,17.72a.41.41,0,0,1-.81,0V264a.41.41,0,0,1,.81,0Zm4.06,0a.41.41,0,0,1-.81,0V264a.41.41,0,0,1,.81,0h0Zm4.06,0a.41.41,0,0,1-.81,0V264a.41.41,0,0,1,.81,0h0Zm-7.6-19.06a.92.92,0,0,1,.69-.28h4.06a.92.92,0,0,1,.7.28,2.39,2.39,0,0,1,.51,1.35H277A2.4,2.4,0,0,1,277.53,258.35Z" transform="translate(-59.04 -53.65)"/><path class="cls-1" d="M379.85,257.24a12,12,0,1,0,12,12,12,12,0,0,0-12-12Zm5.14,17.4H374.74a.88.88,0,0,1-.85-.58.86.86,0,0,1,.81-1.12H385a.88.88,0,0,1,.85.58.86.86,0,0,1-.81,1.13Zm0-4.71H374.74a.88.88,0,0,1-.85-.58.86.86,0,0,1,.81-1.12H385a.88.88,0,0,1,.85.58.86.86,0,0,1-.82,1.13Zm0-4.71H374.74a.88.88,0,0,1-.85-.58.86.86,0,0,1,.81-1.12H385a.88.88,0,0,1,.85.58.86.86,0,0,1-.82,1.13Z" transform="translate(-59.04 -53.65)"/><path class="cls-1" d="M491.65,264.74c-.37-3.86-3.08-6.66-6.49-6.66a6.46,6.46,0,0,0-5.53,3.19,6.23,6.23,0,0,0-5.4-3.19c-3.41,0-6.13,2.8-6.49,6.66a6.86,6.86,0,0,0,.2,2.53,10.85,10.85,0,0,0,3.32,5.54l8.36,7.59,8.51-7.59a10.85,10.85,0,0,0,3.32-5.55A6.88,6.88,0,0,0,491.65,264.74Z" transform="translate(-59.04 -53.65)"/><text class="cls-2" transform="translate(10.46 362.35)">hide</text><text class="cls-2" transform="translate(106.92 362.35)">home</text><text class="cls-2" transform="translate(182.72 362.35)">ho<tspan class="cls-16" x="13.25" y="0">r</tspan><tspan x="17.22" y="0">i</tspan><tspan class="cls-11" x="20.03" y="0">z</tspan><tspan x="25.08" y="0">o</tspan><tspan class="cls-17" x="31.67" y="0">n</tspan><tspan x="38.28" y="0">tal</tspan><tspan class="cls-18" x="50.87" y="0">-</tspan><tspan x="54.77" y="0">dots</tspan></text><text class="cls-2" transform="translate(296.41 362.35)">hou<tspan class="cls-14" x="19.86" y="0">r</tspan><tspan class="cls-7" x="23.69" y="0">glass</tspan></text><text class="cls-2" transform="translate(412.33 362.35)">key</text><path class="cls-1" d="M89.33,364.35a12.43,12.43,0,0,0-2.84-2.13l3.88-3.86a.41.41,0,1,0-.57-.58l-4.06,4.06a12.38,12.38,0,0,0-13.88,2.5l-3.22,3.22,3.3,3.3a12.43,12.43,0,0,0,2.74,2.07l-3.73,3.7a.4.4,0,1,0,.52.62l.05-.05,3.89-3.88a12.39,12.39,0,0,0,14-2.45l3.22-3.22Zm-14.08,8a11.59,11.59,0,0,1-2.75-2l-2.72-2.73,2.65-2.65a11.57,11.57,0,0,1,12.69-2.46Zm13.59-2A11.56,11.56,0,0,1,76,372.71l9.88-9.88a11.58,11.58,0,0,1,2.86,2.1l2.72,2.72Z" transform="translate(-59.04 -53.65)"/><path class="cls-1" d="M80.61,362.33a5.26,5.26,0,0,0-4.45,8.07l7.26-7.26A5.23,5.23,0,0,0,80.61,362.33Z" transform="translate(-59.04 -53.65)"/><path class="cls-1" d="M77.73,372A5.26,5.26,0,0,0,85,364.72Z" transform="translate(-59.04 -53.65)"/><path class="cls-1" d="M192.2,366.28l-3.91-3.64v-4.56H185v1.56l-4.45-4.13L169,366.28a.4.4,0,0,0,.55.59l1.75-1.62v14.26h6.47v-9.73a.78.78,0,0,1,.78-.78h4.09a.78.78,0,0,1,.77.78v9.73h6.48V365.25l1.75,1.62a.4.4,0,0,0,.55-.59h0Z" transform="translate(-59.04 -53.65)"/><path class="cls-1" d="M285.79,367.51a3.2,3.2,0,1,0,3.2-3.2A3.2,3.2,0,0,0,285.79,367.51Z" transform="translate(-59.04 -53.65)"/><path class="cls-1" d="M274.58,367.51a3.2,3.2,0,1,0-3.2,3.2A3.2,3.2,0,0,0,274.58,367.51Z" transform="translate(-59.04 -53.65)"/><path class="cls-1" d="M283.39,367.51a3.2,3.2,0,1,0-3.2,3.2A3.2,3.2,0,0,0,283.39,367.51Z" transform="translate(-59.04 -53.65)"/><path class="cls-1" d="M389.34,378.71h-1.2v-1.6h-2V373a3.22,3.22,0,0,0-1.44-2.68l-4.24-2.83,4.24-2.83a3.22,3.22,0,0,0,1.44-2.68v-4.09h2v-1.6h1.2a.4.4,0,0,0,0-.8h-19.2a.4.4,0,1,0-.08.8h1.28v1.6h2V362a3.22,3.22,0,0,0,1.44,2.68l4.24,2.83-4.24,2.83a3.22,3.22,0,0,0-1.44,2.68v4.09h-2v1.6h-1.2a.4.4,0,0,0-.08.8h19.27a.4.4,0,0,0,0-.8ZM375.22,364a2.42,2.42,0,0,1-1.08-2v-4.09h11.2V362a2.42,2.42,0,0,1-1.08,2l-4.52,3Zm-1.08,9a2.42,2.42,0,0,1,1.08-2l4.52-3,4.52,3a2.42,2.42,0,0,1,1.08,2v4.09h-11.2Z" transform="translate(-59.04 -53.65)"/><path class="cls-1" d="M376.12,362.85a.82.82,0,0,1-.37-.69v-.89a.4.4,0,1,0-.8,0v.89a1.62,1.62,0,0,0,.72,1.35l1.86,1.24a.4.4,0,0,0,.52-.62l-.07,0Z" transform="translate(-59.04 -53.65)"/><path class="cls-1" d="M384.55,373.51a1.62,1.62,0,0,0-.72-1.35L382,370.92a.4.4,0,1,0-.52.62l.07,0,1.86,1.24a.82.82,0,0,1,.37.69v.89a.4.4,0,0,0,.8,0Z" transform="translate(-59.04 -53.65)"/><path class="cls-1" d="M485,355.51a7,7,0,0,0-6,10.64l-10.69,10.7a.83.83,0,1,0,1.17,1.17h0l1.48-1.48,2.73,2.73a.83.83,0,0,0,1.18-1.17h0l-2.73-2.73.9-.9,1.9,1.9a.83.83,0,1,0,1.16-1.16l-1.9-1.9.9-.9,2.73,2.73A.83.83,0,1,0,479,374h0l-2.73-2.73,3.76-3.76a7,7,0,1,0,5-12Zm0,12.41a5.37,5.37,0,1,1,5.37-5.37A5.37,5.37,0,0,1,485,367.92Z" transform="translate(-59.04 -53.65)"/><text class="cls-2" transform="translate(8.51 462.35)">lo<tspan class="cls-12" x="9.42" y="0">g</tspan><tspan x="16.06" y="0">in</tspan></text><text class="cls-2" transform="translate(104.79 462.35)">logout</text><text class="cls-2" transform="translate(206.56 462.35)">minus</text><text class="cls-2" transform="translate(306.36 462.35)">pencil</text><text class="cls-2" transform="translate(412.98 462.35)">pin</text><path class="cls-1" d="M79.16,472.13a.43.43,0,0,0,.59.62h0l5.14-5.14a.43.43,0,0,0,.09-.47.44.44,0,0,0-.09-.14l-5.14-5.14a.43.43,0,0,0-.61.61l4.41,4.41H70.46a.43.43,0,0,0,0,.86H83.57Z" transform="translate(-59.04 -53.65)"/><path class="cls-1" d="M90.17,455.29H74.32a.43.43,0,0,0-.43.43v9.43h5.54l-1.64-1.65a1,1,0,0,1-.17-.23,2.17,2.17,0,0,1,3-3,1,1,0,0,1,.23.17l5.3,5.31a2.15,2.15,0,0,1,.27.33l.07.13,0,.07.08.17a1.5,1.5,0,0,1,.06.18v.09a1.27,1.27,0,0,1,0,.15,2.14,2.14,0,0,1,0,.84l0,.12,0,.08a1.43,1.43,0,0,1-.06.18l-.09.17,0,.07-.07.13a2.16,2.16,0,0,1-.27.33L81,473.95a2.14,2.14,0,0,1-3,0h0a2.22,2.22,0,0,1-.34-2.63,1,1,0,0,1,.17-.23l1.65-1.65H73.89v9.43a.43.43,0,0,0,.43.43H90.17a.43.43,0,0,0,.43-.43V455.72A.43.43,0,0,0,90.17,455.29Z" transform="translate(-59.04 -53.65)"/><path class="cls-1" d="M192,465.6a.45.45,0,0,0-.09-.14l-5.24-5.24a.44.44,0,0,0-.62.62l4.49,4.49h-9.43a.44.44,0,1,0-.08.87h9.51l-4.49,4.49a.44.44,0,0,0,.55.68l.06-.06,5.24-5.23a.46.46,0,0,0,.1-.48Z" transform="translate(-59.04 -53.65)"/><path class="cls-1" d="M184.19,468a.44.44,0,0,0-.44.44h0v7h-4.37V458.78a.44.44,0,0,0-.31-.41l-6.92-2.2h11.6v7a.44.44,0,1,0,.87,0v-7.41a.44.44,0,0,0-.44-.44h-14.9l-.06,0-.12,0,0,0,0,0,0,0a.45.45,0,0,0-.08.12v0a.43.43,0,0,0,0,.15v20.1a.43.43,0,0,0,0,.15l0,0,.06.09,0,0,.08.06h.07l9.61,3.06.13,0a.44.44,0,0,0,.44-.44h0v-2.6h4.8a.44.44,0,0,0,.44-.43v-7.43a.44.44,0,0,0-.44-.44Z" transform="translate(-59.04 -53.65)"/><path class="cls-1" d="M290.26,464.41H271.78a2.88,2.88,0,0,0,0,5.75h18.48a2.88,2.88,0,0,0,0-5.75Z" transform="translate(-59.04 -53.65)"/><path class="cls-1" d="M368.89,477.85l-.23.9a.43.43,0,0,0,0,.09h0a.43.43,0,0,0,0,.15v0a.42.42,0,0,0,.39.25h.1l.91-.22Z" transform="translate(-59.04 -53.65)"/><path class="cls-1" d="M391.52,456.44a3.91,3.91,0,0,0-5.53,0L370.32,472.1l0,0,0,0a.42.42,0,0,0-.06.1v0h0l-1.1,4.57,2,2,4.53-1.08h.08l.09-.05,0,0h0L391.52,462A3.91,3.91,0,0,0,391.52,456.44Zm-15.4,19.7.15-1.39,9.72-9.69a.44.44,0,1,0-.56-.67l-.06.06-9.72,9.7-2.07.23.23-2.07,9.72-9.72a.44.44,0,0,0-.56-.67l-.06.06-9.72,9.71-1.39.15,12-12,4.3,4.29Zm12.64-12.64-4.3-4.3.61-.61,4.3,4.3Zm1.23-1.24-4.3-4.29.61-.61,4.3,4.3Z" transform="translate(-59.04 -53.65)"/><path class="cls-1" d="M492.15,464.93a.45.45,0,0,0-.28-.33,10.56,10.56,0,0,0-3.93-.75,11.36,11.36,0,0,0-4.41.88L476.82,459a5.06,5.06,0,0,0-.93-3.54.46.46,0,0,0-.33-.17.47.47,0,0,0-.34.13l-6.91,6.91a.45.45,0,0,0,0,.64l0,0a4.88,4.88,0,0,0,3,.95h.47l5.76,6.76a11.79,11.79,0,0,0-.14,8.31.45.45,0,0,0,.33.28h.09a.45.45,0,0,0,.32-.13l6.6-6.59,6.14,6.14a.45.45,0,0,0,.64-.64l-6.15-6.14,6.58-6.58A.45.45,0,0,0,492.15,464.93Z" transform="translate(-59.04 -53.65)"/><text class="cls-2" transform="translate(4.96 562.35)">p<tspan class="cls-19" x="6.83" y="0">o</tspan><tspan class="cls-3" x="13.33" y="0">w</tspan><tspan x="22.04" y="0">er</tspan></text><text class="cls-2" transform="translate(110.72 562.35)">s<tspan class="cls-20" x="4.75" y="0">a</tspan><tspan class="cls-3" x="10.44" y="0">v</tspan><tspan x="16.09" y="0">e</tspan></text><text class="cls-2" transform="translate(209.55 562.35)">send</text><text class="cls-2" transform="translate(312.43 562.35)">star</text><text class="cls-2" transform="translate(392.98 562.35)">s<tspan class="cls-12" x="4.75" y="0">t</tspan><tspan x="8.65" y="0">o</tspan><tspan class="cls-21" x="15.24" y="0">p</tspan><tspan class="cls-22" x="22.25" y="0">-</tspan><tspan class="cls-23" x="25.87" y="0">wa</tspan><tspan class="cls-8" x="40.39" y="0">t</tspan><tspan x="44.29" y="0">ch</tspan></text><path class="cls-1" d="M81,568.74V558.29a.86.86,0,0,0-.57-.84.85.85,0,0,0-1.12.8v10.51a.85.85,0,0,0,1.12.8A.86.86,0,0,0,81,568.74Z" transform="translate(-59.04 -53.65)"/><path class="cls-1" d="M90.91,569.63v-.12A11,11,0,0,0,84,560.27l-.12,0-.73-.25-.05,0h0a11,11,0,0,0-1.62-.35v1.7a9.26,9.26,0,1,1-2.93,0v-1.7a11,11,0,0,0-1.57.33h0l-.09,0-.73.25-.14,0a10.88,10.88,0,0,0-1.52.73h0a11,11,0,0,0-5.39,8.51v.12a5.23,5.23,0,0,0,0,.83,10.95,10.95,0,1,0,21.89,0C90.94,570.18,90.93,569.9,90.91,569.63Z" transform="translate(-59.04 -53.65)"/><rect class="cls-1" x="120.82" y="505.11" width="3.92" height="6.53"/><path class="cls-1" d="M188.37,557.41H169.06v24h23.51V561.61Zm-14.42,1H186.7v7.83H173.94Zm14.24,22H173V570.14h15.2Z" transform="translate(-59.04 -53.65)"/><path class="cls-1" d="M175.43,573.08h3.43a.49.49,0,0,0,0-1h-3.43a.49.49,0,0,0,0,1Z" transform="translate(-59.04 -53.65)"/><path class="cls-1" d="M175.43,575h4.88a.49.49,0,0,0,0-1h-4.88a.49.49,0,0,0,0,1Z" transform="translate(-59.04 -53.65)"/><path class="cls-1" d="M181.8,575a.5.5,0,0,0,.35-.14.5.5,0,0,0,0-.7.51.51,0,0,0-.69,0,.49.49,0,0,0,.33.83h0Z" transform="translate(-59.04 -53.65)"/><path class="cls-1" d="M292.69,561.77h0a.38.38,0,0,0-.05-.14h0a.39.39,0,0,0-.09-.1h0l-.09,0-.08-.07h-.15L269,566.22a.4.4,0,0,0-.1.74l6.64,3.5,1.17,6.47h0a.38.38,0,0,0,0,.09.37.37,0,0,0,0,0,.39.39,0,0,0,0,.11v0h0l0,0,.06.06h0l.08,0h0l.11,0h0a.4.4,0,0,0,.29-.13l4.46-2.89,4.63,3a.4.4,0,0,0,.55-.12l0-.08L292.62,562a.4.4,0,0,0,.06-.21A.44.44,0,0,0,292.69,561.77ZM288,564.43l-9.59,7,0,0h0l0,0,0,0,0,.08h0l-1.12,3.62-.88-4.83ZM277.84,576l1.09-3.6,1.69,1.1.48.32-1.64,1.1Z" transform="translate(-59.04 -53.65)"/><path class="cls-1" d="M392.67,566.67a.43.43,0,0,0-.35-.29l-7.77-1.14-3.48-7a.43.43,0,0,0-.76,0l-3.48,7-7.76,1.13a.43.43,0,0,0-.25.73l5.62,5.48-1.33,7.74a.43.43,0,0,0,.62.45l7-3.65,7,3.65a.43.43,0,0,0,.62-.45l-1.33-7.74,5.62-5.48A.43.43,0,0,0,392.67,566.67Z" transform="translate(-59.04 -53.65)"/><path class="cls-1" d="M481,569.66l-5.19-3.75a.4.4,0,0,0-.56.56l3.75,5.19a1.43,1.43,0,1,0,2-2Z" transform="translate(-59.04 -53.65)"/><path class="cls-1" d="M490.6,567.86h0a10.77,10.77,0,0,0-1.07-2.58v0a10.86,10.86,0,0,0-1.42-1.93l.86-.86.56.56,1.66-1.7-1.69-1.7-1.69,1.7.56.56-.86.86a10.84,10.84,0,0,0-1.92-1.42h0a10.68,10.68,0,0,0-2.57-1.07h0a10.66,10.66,0,0,0-1.59-.36v-.48h.55a1,1,0,0,0,1-.75,1,1,0,0,0-1-1.25h-3.55a1,1,0,0,0-1,.75,1,1,0,0,0,.73,1.22l.24,0h.6v.51a10.51,10.51,0,0,0-1.56.29h0a10.7,10.7,0,0,0-2.57,1.07h0a10.84,10.84,0,0,0-1.92,1.42l-.83-.82.55-.56-1.69-1.7-1.69,1.7,1.69,1.7.56-.56.86.86a10.85,10.85,0,0,0-1.42,1.93v0a10.75,10.75,0,0,0-1.07,2.58h0a10.83,10.83,0,0,0,0,5.59h0a10.76,10.76,0,0,0,1.07,2.58v0l0,0a10.89,10.89,0,0,0,1.67,2.18v0h0a10.85,10.85,0,0,0,2.19,1.68h.06A10.7,10.7,0,0,0,477.4,581h0a10.73,10.73,0,0,0,5.57,0h0a10.7,10.7,0,0,0,2.56-1.07h.06a10.86,10.86,0,0,0,2.19-1.68h0v0a10.89,10.89,0,0,0,1.67-2.18l0,0v0a10.76,10.76,0,0,0,1.07-2.58h0a10.82,10.82,0,0,0,0-5.59ZM489,573.39l.77.21a10,10,0,0,1-.71,1.68l-.68-.39a.41.41,0,1,0-.4.71l.68.39a10,10,0,0,1-1.1,1.44l-.56-.56a.4.4,0,0,0-.56.56l.56.56a10,10,0,0,1-1.43,1.08l-.39-.68a.41.41,0,1,0-.71.4l.39.68a10,10,0,0,1-1.68.71l-.19-.76a.4.4,0,0,0-.79.16v0l.21.76a10,10,0,0,1-1.8.24v-.8a.4.4,0,1,0-.8,0v.79a10,10,0,0,1-1.8-.24l.21-.76a.4.4,0,0,0-.77-.2l-.21.77a10,10,0,0,1-1.68-.71l.39-.68a.41.41,0,1,0-.71-.4l-.37.67a10,10,0,0,1-1.44-1.1l.56-.56a.4.4,0,1,0-.51-.62l-.06.06-.56.56a10,10,0,0,1-1.1-1.44l.68-.39a.4.4,0,0,0-.39-.69l-.69.39a10,10,0,0,1-.71-1.68l.78-.21a.4.4,0,0,0-.21-.77l-.76.21a10,10,0,0,1-.24-1.8H471a.4.4,0,0,0,0-.8h-.79a10,10,0,0,1,.24-1.8l.76.21h.1a.4.4,0,0,0,.1-.79l-.77-.21a10,10,0,0,1,.71-1.68l.68.41a.41.41,0,1,0,.4-.71h0l-.69-.38a10,10,0,0,1,1.11-1.44l.56.56a.4.4,0,0,0,.56-.56l-.56-.56a10.08,10.08,0,0,1,1.44-1.1l.39.68a.41.41,0,1,0,.71-.4h0l-.41-.69a10,10,0,0,1,1.68-.71l.21.77a.4.4,0,0,0,.39.3h.1a.4.4,0,0,0,.28-.49l-.21-.77a10,10,0,0,1,1.8-.26v.79a.4.4,0,1,0,.8,0v-.79a10,10,0,0,1,1.8.24l-.21.76a.4.4,0,0,0,.28.49h.1a.4.4,0,0,0,.39-.3l.21-.77a10,10,0,0,1,1.68.71l-.39.71a.41.41,0,0,0,.71.4l.39-.68a10.08,10.08,0,0,1,1.44,1.1l-.56.56a.4.4,0,0,0,.51.62l.06-.06.54-.56a10,10,0,0,1,1.1,1.44l-.68.39a.41.41,0,1,0,.4.71h0l.7-.41a10,10,0,0,1,.71,1.68l-.77.21a.4.4,0,0,0,.1.79h.1l.74-.22a10,10,0,0,1,.24,1.8h-.79a.4.4,0,0,0,0,.8h.79a10,10,0,0,1-.24,1.8l-.76-.21a.4.4,0,0,0-.24.77Z" transform="translate(-59.04 -53.65)"/><text class="cls-2" transform="translate(6.18 662.35)">ta<tspan class="cls-14" x="9.76" y="0">r</tspan><tspan x="13.58" y="0">get</tspan></text><text class="cls-2" transform="translate(105.25 662.35)">unlock</text><text class="cls-2" transform="translate(203.91 662.35)">upload</text><text class="cls-2" transform="translate(290.27 662.35)"><tspan class="cls-3">v</tspan><tspan class="cls-4" x="5.65" y="0">e</tspan><tspan class="cls-24" x="11.66" y="0">r</tspan><tspan x="15.88" y="0">tical</tspan><tspan class="cls-18" x="36.65" y="0">-</tspan><tspan x="40.55" y="0">dots</tspan></text><text class="cls-25" transform="translate(399.86 662.35)">w<tspan class="cls-7" x="8.78" y="0">a</tspan><tspan class="cls-13" x="14.57" y="0">r</tspan><tspan class="cls-7" x="18.54" y="0">ning</tspan></text><path class="cls-1" d="M91.81,670.85H89a8.65,8.65,0,0,0-8.07-8.07V660a.56.56,0,0,0-1.12,0v2.81a8.65,8.65,0,0,0-8.07,8.07H68.92a.56.56,0,0,0,0,1.12h2.81A8.65,8.65,0,0,0,79.81,680v2.81a.56.56,0,1,0,1.12,0V680A8.65,8.65,0,0,0,89,672h2.81a.56.56,0,0,0,0-1.12Zm-10.88,8.07v-2.49a.56.56,0,1,0-1.12,0v2.49a7.53,7.53,0,0,1-7-7h2.49a.56.56,0,0,0,0-1.12H72.85a7.53,7.53,0,0,1,7-7v2.49a.56.56,0,0,0,1.12,0V663.9a7.53,7.53,0,0,1,7,7H85.39a.56.56,0,0,0,0,1.12h2.49A7.53,7.53,0,0,1,80.92,678.93Z" transform="translate(-59.04 -53.65)"/><path class="cls-1" d="M188.35,668.27v-2.39c0-3.57-3.21-6.48-7.15-6.48s-7.15,2.91-7.15,6.48a.45.45,0,0,0,.89,0c0-3.08,2.81-5.58,6.25-5.58s6.25,2.51,6.25,5.58v2.34H174.61a3.23,3.23,0,0,0-3.23,3.23v8.73a3.23,3.23,0,0,0,3.23,3.23H187.8a3.23,3.23,0,0,0,3.23-3.23v-8.71A3.23,3.23,0,0,0,188.35,668.27ZM183,676.39a1.79,1.79,0,0,1-3.57,0v-2.68a1.79,1.79,0,1,1,3.57,0Z" transform="translate(-59.04 -53.65)"/><text class="cls-2" transform="translate(1.04 762.35)"><tspan class="cls-19">z</tspan><tspan x="5.05" y="0">oom-in</tspan></text><text class="cls-2" transform="translate(96.35 762.35)"><tspan class="cls-19">z</tspan><tspan x="5.05" y="0">oom</tspan><tspan class="cls-26" x="28.24" y="0">-</tspan><tspan x="32.14" y="0">out</tspan></text><path class="cls-1" d="M276.62,665.08a.8.8,0,0,0,.57-.24l2.66-2.66v12.94a.83.83,0,0,0,.54.8.81.81,0,0,0,1.07-.76v-13l2.62,2.62a.82.82,0,0,0,.95.18.81.81,0,0,0,.21-1.3l-4-4-.12-.1-.07,0-.08,0-.09,0-.05,0a.8.8,0,0,0-.31,0l-.08,0-.08,0-.08,0-.06,0-.12.1-4,4a.83.83,0,0,0-.15,1A.81.81,0,0,0,276.62,665.08Z" transform="translate(-59.04 -53.65)"/><path class="cls-1" d="M282.27,666.07v9.22a1.65,1.65,0,0,1-1.28,1.64,1.61,1.61,0,0,1-1.94-1.58v-9.27h-7.27v17.34h17.75V666.07Z" transform="translate(-59.04 -53.65)"/><path class="cls-1" d="M380.63,665.81a3.2,3.2,0,1,0-3.2-3.2A3.2,3.2,0,0,0,380.63,665.81Z" transform="translate(-59.04 -53.65)"/><path class="cls-1" d="M380.63,677a3.2,3.2,0,1,0,3.2,3.2A3.2,3.2,0,0,0,380.63,677Z" transform="translate(-59.04 -53.65)"/><path class="cls-1" d="M380.63,668.21a3.2,3.2,0,1,0,3.2,3.2A3.2,3.2,0,0,0,380.63,668.21Z" transform="translate(-59.04 -53.65)"/><path class="cls-1" d="M479.59,659.41a12,12,0,1,0,12,12h0A12,12,0,0,0,479.59,659.41Zm.73,18.94a.93.93,0,0,1-1.22.88,1,1,0,0,1-.63-.93v-.84a1,1,0,0,1,.62-.92.93.93,0,0,1,1.22.88Zm0-3.69a.93.93,0,0,1-1.22.88,1,1,0,0,1-.63-.93V664.53a1,1,0,0,1,.63-.91.93.93,0,0,1,1.22.88Z" transform="translate(-59.04 -53.65)"/><path class="cls-1" d="M92.17,782.21l-6.72-7a9.5,9.5,0,1,0-.67.6l6.73,7a.45.45,0,0,0,.65-.63Zm-10.09-12.9H79.86v2.22a.93.93,0,0,1-.61.9.91.91,0,0,1-1.2-.86v-2.26H75.83a.93.93,0,0,1-.9-.61.91.91,0,0,1,.86-1.2H78v-2.23a.93.93,0,0,1,.61-.9.91.91,0,0,1,1.2.86v2.26h2.26A.91.91,0,0,1,83,768.7.93.93,0,0,1,82.08,769.31Z" transform="translate(-59.04 -53.65)"/><path class="cls-1" d="M191.47,782.22l-6.72-7a9.51,9.51,0,1,0-.67.61l6.74,7a.45.45,0,0,0,.65-.63ZM181.18,769.6h-6.3a.93.93,0,0,1-.9-.61.91.91,0,0,1,.86-1.21h6.29a.93.93,0,0,1,.9.61.91.91,0,0,1-.86,1.21Z" transform="translate(-59.04 -53.65)"/></svg>